<svg width="37" height="25" viewBox="0 0 37 25" fill="none" xmlns="http://www.w3.org/2000/svg">
<g clip-path="url(#clip0_1007_235)">
<path fill-rule="evenodd" clip-rule="evenodd" d="M0 0H37V25H0V0Z" fill="white"/>
<path fill-rule="evenodd" clip-rule="evenodd" d="M1.62853 23.0472H1.52276C1.52276 23.0115 1.49627 22.9578 1.49627 22.9398C1.49627 22.922 1.49627 22.8863 1.4168 22.8863H1.25787V23.0472H1.1784V22.6716H1.4168C1.52276 22.6716 1.60204 22.6896 1.60204 22.7609C1.60204 22.8146 1.57555 22.8326 1.54925 22.8503C1.57574 22.8683 1.60204 22.8862 1.60204 22.922V22.9935C1.60204 23.0115 1.60204 23.0115 1.62853 23.0115V23.0472ZM1.52276 22.7789C1.52276 22.7252 1.46978 22.7252 1.44329 22.7252H1.25787V22.8326H1.4168C1.46978 22.8326 1.52276 22.8146 1.52276 22.7789V22.7789ZM1.97289 22.8504C1.97289 22.6359 1.70819 22.4568 1.36383 22.4568C1.04614 22.4568 0.78125 22.6359 0.78125 22.8504C0.78125 23.083 1.04614 23.2621 1.36383 23.2621C1.708 23.2619 1.97289 23.083 1.97289 22.8504ZM1.89342 22.8504C1.89342 23.0473 1.65521 23.1903 1.36383 23.1903C1.07244 23.1903 0.860718 23.0472 0.860718 22.8504C0.860718 22.6716 1.07263 22.5105 1.36383 22.5105C1.65502 22.5105 1.89342 22.6716 1.89342 22.8504ZM34.5165 15.6222C34.5165 16.159 34.0134 16.4092 33.113 16.4092H31.3921V15.8724H33.113C33.2719 15.8724 33.4043 15.8546 33.4575 15.819C33.5103 15.7831 33.5633 15.7294 33.5633 15.6579C33.5633 15.5862 33.5105 15.5147 33.4575 15.479C33.4043 15.4431 33.2986 15.4253 33.1396 15.4253C32.3191 15.4073 31.2862 15.4431 31.2862 14.656C31.2862 14.298 31.6303 13.9044 32.5571 13.9044H34.3311V14.4412H32.6893C32.5308 14.4412 32.4246 14.4412 32.3452 14.4769C32.2657 14.5306 32.2129 14.5843 32.2129 14.6737C32.2129 14.7632 32.2924 14.8169 32.3981 14.8529C32.5043 14.8706 32.6102 14.8885 32.7427 14.8885H33.2191C33.7222 14.8885 34.0401 14.96 34.252 15.0854C34.4106 15.2106 34.5165 15.3718 34.5165 15.6222V15.6222ZM30.7829 15.0854C30.5709 14.96 30.2531 14.8885 29.75 14.8885H29.2735C29.1413 14.8885 29.0351 14.8705 28.9294 14.8529C28.8232 14.8169 28.7441 14.7632 28.7441 14.6737C28.7441 14.5843 28.7704 14.5306 28.8764 14.4769C28.9559 14.4412 29.0616 14.4412 29.2206 14.4412H30.8623V13.9044H29.0883C28.1349 13.9044 27.817 14.298 27.817 14.656C27.817 15.443 28.8499 15.4073 29.6709 15.4253C29.8294 15.4253 29.9356 15.4431 29.9884 15.479C30.0411 15.5147 30.0945 15.5862 30.0945 15.6579C30.0945 15.7294 30.0413 15.7831 29.9884 15.819C29.9089 15.8546 29.8031 15.8724 29.6442 15.8724H27.923V16.4092H29.6442C30.5443 16.4092 31.0476 16.1589 31.0476 15.6222C31.0476 15.3718 30.9418 15.2106 30.7829 15.0854V15.0854ZM27.3934 15.8906H25.3018V15.3896H27.3406V14.8888H25.3018V14.4234H27.3934V13.9046H24.4279V16.4094H27.3934V15.8906ZM23.4745 14.0299C23.1831 13.9225 22.8389 13.9045 22.3888 13.9045H20.35V16.4092H21.2501V15.4968H22.2035C22.521 15.4968 22.7066 15.5148 22.8391 15.6042C22.998 15.7294 22.998 15.9441 22.998 16.1052V16.4092H23.8716V15.9261C23.8716 15.6936 23.8453 15.5862 23.7393 15.461C23.6599 15.3893 23.5013 15.2999 23.2894 15.2462C23.5274 15.1928 23.925 14.978 23.925 14.5843C23.9248 14.2981 23.7658 14.1371 23.4745 14.0299V14.0299ZM18.4434 13.9045H15.61L14.4713 14.7276L13.3856 13.9045H9.81089V16.4092H13.3328L14.4715 15.5862L15.5572 16.4092H17.2784V15.5685H18.3906C19.1584 15.5685 19.9266 15.4253 19.9266 14.7276C19.9264 14.0477 19.1319 13.9045 18.4434 13.9045ZM22.7594 14.9424C22.6272 14.978 22.4947 14.978 22.3358 14.978L21.2501 14.996V14.4233H22.3358C22.4947 14.4233 22.6537 14.4233 22.7594 14.477C22.8656 14.5129 22.9447 14.5844 22.9447 14.6918C22.9447 14.7992 22.8656 14.8887 22.7594 14.9424V14.9424ZM18.4434 15.0675H17.2782V14.4233H18.4434C18.7613 14.4233 18.973 14.5129 18.973 14.7276C18.973 14.9424 18.7611 15.0675 18.4434 15.0675ZM15.0274 15.1569L16.4043 14.173V16.1947L15.0274 15.1569ZM12.8825 15.8906H10.6847V15.3896H12.6441V14.8888H10.6847V14.4234H12.909L13.8887 15.157L12.8825 15.8906V15.8906ZM32.0538 12.0974H30.7829L29.1146 10.2188V12.0974H27.3143L26.9697 11.5427H25.1162L24.7721 12.0974H23.7392C23.3155 12.0974 22.7594 12.0258 22.4419 11.8111C22.1506 11.5964 21.9916 11.3102 21.9916 10.8628C21.9916 10.4871 22.0711 10.1472 22.468 9.87883C22.7328 9.68195 23.2096 9.59259 23.8184 9.59259H24.6657V10.1294H23.8184C23.5009 10.1294 23.3153 10.1652 23.1301 10.2726C22.9712 10.38 22.8917 10.5767 22.8917 10.8451C22.8917 11.1134 22.9712 11.3103 23.1301 11.4356C23.2623 11.525 23.5009 11.5607 23.739 11.5607H24.1363L25.4072 9.59272H26.7313L28.2141 11.9544V9.59259H29.5912L31.1535 11.3281V9.59259H32.0536V12.0974H32.0538V12.0974ZM21.5415 9.59259H20.6414V12.0974H21.5415V9.59259V9.59259ZM19.6613 9.69998C19.3699 9.59259 19.0524 9.59259 18.6023 9.59259H16.5632V12.0974H17.437V11.1849H18.3902C18.7081 11.1849 18.92 11.2028 19.0523 11.2923C19.2112 11.4176 19.1845 11.6323 19.1845 11.7754V12.0974H20.0846V11.5964C20.0846 11.3818 20.0583 11.2744 19.926 11.1491C19.8466 11.0775 19.6876 10.988 19.5024 10.9344C19.7404 10.8628 20.1379 10.6661 20.1379 10.2725C20.1381 9.98622 19.9525 9.82513 19.6613 9.69998ZM15.9276 11.5786H13.8622V11.0776H15.9012V10.5588H13.8622V10.1115H15.9276V9.59272H12.962V12.0976H15.9276V11.5786ZM12.2999 9.59259H10.8436L9.75791 11.2923L8.59276 9.59259H7.1629V11.9542L5.65358 9.59259H4.32968L2.74089 12.0974H3.69413L4.0383 11.5427H5.89179L6.23597 12.0974H8.03667V10.1294L9.33408 12.0974H10.1019L11.3995 10.1294V12.0974H12.2997V9.59259H12.2999ZM26.6522 11.006L26.043 10.022L25.4341 11.006H26.6522ZM18.973 10.6125C18.8407 10.6662 18.7083 10.6662 18.5228 10.6662H17.437V10.1116H18.5227C18.6816 10.1116 18.8666 10.1116 18.9728 10.1474C19.0786 10.2011 19.1317 10.2727 19.1317 10.38C19.1317 10.4872 19.0787 10.5766 18.973 10.6125V10.6125ZM4.35598 11.006L4.96505 10.022L5.57411 11.006H4.35598V11.006ZM34.3048 1.7381H2.71421V10.7556L3.7999 9.09169H6.10352L6.42139 9.50322V9.09169H9.12236L9.73142 9.98622L10.314 9.09169H18.92C19.317 9.09169 19.6611 9.14539 19.9262 9.28844V9.09169H22.2828V9.28844C22.6798 9.14526 23.1829 9.09169 23.7656 9.09169H27.1814L27.4993 9.50322V9.09169H30.0149L30.3857 9.50322V9.09169H32.8481V12.5985H30.3592L29.8828 12.0618V12.5985H26.7845L26.4403 12.026H25.6721L25.328 12.5985H23.7129C23.0773 12.5985 22.6005 12.4911 22.283 12.3838V12.5985H18.4434V11.7933C18.4434 11.6859 18.4169 11.668 18.3109 11.668H18.1787V12.5983H10.7641V12.151L10.4994 12.5983H8.93712L8.67242 12.1689V12.5983H5.68007L5.36239 12.0258H4.59439L4.25022 12.5983H2.71421V23.1724H34.3048V16.7492C33.9606 16.8566 33.4838 16.9103 33.0072 16.9103H30.7034V16.6955C30.4387 16.8388 29.9619 16.9103 29.5119 16.9103H22.2563V16.1052C22.2563 15.9978 22.23 15.9978 22.0974 15.9978H21.9651V16.9103H19.5818V15.962C19.1849 16.0872 18.7346 16.0872 18.3374 16.0872H18.0725V16.9103H15.1598L14.4715 16.3734L13.7037 16.9103H9.0164V13.4036H13.7828L14.4713 13.9402L15.2128 13.4036H18.4169C18.7874 13.4036 19.3966 13.4393 19.6613 13.6181V13.4036H22.521C22.8124 13.4036 23.3687 13.4393 23.7392 13.6181V13.4036H28.0554V13.6183C28.2938 13.4751 28.7441 13.4038 29.1411 13.4038H31.5507V13.6183C31.8158 13.4931 32.1862 13.4038 32.663 13.4038H34.3048V1.7381V1.7381Z" fill="#0077A6"/>
</g>
<defs>
<clipPath id="clip0_1007_235">
<rect width="37" height="25" fill="white"/>
</clipPath>
</defs>
</svg>
