<svg width="39" height="30" viewBox="0 0 39 30" fill="none" xmlns="http://www.w3.org/2000/svg">
<g clip-path="url(#clip0_1004_343)">
<path d="M25.4365 1.59103e-06C23.1412 -0.00132637 20.8978 0.828673 18.9932 2.38382C18.8621 2.49264 17.9559 3.27851 17.9161 3.3168C16.4106 4.69107 15.3998 4.92885 14.0156 4.5077C13.931 4.48151 13.5343 4.31627 13.4098 4.25783C12.1169 3.66685 10.7261 3.46128 9.35419 3.65841C7.98229 3.85553 6.66941 4.44959 5.5259 5.39066C4.38238 6.33172 3.44164 7.5923 2.78274 9.06643C2.12384 10.5406 1.76604 12.1852 1.7394 13.8621C1.71276 15.539 2.01807 17.1991 2.62966 18.703C3.24125 20.2069 4.14126 21.5105 5.25404 22.5044C6.36682 23.4983 7.65985 24.1534 9.02447 24.4146C10.3891 24.6758 11.7854 24.5355 13.0961 24.0055C15.1608 23.2559 16.2812 23.4614 17.5775 24.5717C17.8364 24.7934 18.4605 25.279 18.5899 25.3939C20.0653 26.7083 21.7762 27.5794 23.5825 27.936C25.3888 28.2925 27.2389 28.1243 28.9813 27.4451C30.7237 26.7658 32.3086 25.5949 33.6063 24.0284C34.9039 22.4618 35.8773 20.5442 36.4466 18.4327C37.0158 16.3212 37.1648 14.076 36.8814 11.8811C36.5979 9.68622 35.8899 7.60414 34.8156 5.80556C33.7413 4.00698 32.3312 2.54312 30.7009 1.53398C29.0706 0.524832 27.2665 -0.00085783 25.4365 1.59103e-06V1.59103e-06Z" fill="#007858"/>
<path d="M21.2587 16.2334C20.929 16.6273 20.4991 16.874 20.0392 16.9333C19.5792 16.9925 19.1163 16.8609 18.7259 16.5598L17.9574 18.0409C18.6232 18.5517 19.4115 18.7747 20.1947 18.6737C20.9779 18.5728 21.7101 18.1538 22.2728 17.4847L21.2587 16.2334ZM19.8744 10.2003C19.2397 10.188 18.6142 10.3856 18.0649 10.772C17.5157 11.1583 17.0633 11.7188 16.7564 12.3933C16.4494 13.0679 16.2993 13.8311 16.3223 14.6013C16.3453 15.3715 16.5405 16.1195 16.8868 16.7653L23.2238 13.4768C23.0455 12.556 22.6192 11.7337 22.0126 11.1402C21.4059 10.5468 20.6534 10.216 19.8744 10.2003V10.2003ZM17.7748 14.71C17.7269 14.1778 17.8211 13.641 18.0437 13.1788C18.2662 12.7166 18.6052 12.3534 19.0107 12.143C19.4162 11.9325 19.8666 11.8859 20.2956 12.0099C20.7246 12.134 21.1093 12.4222 21.3931 12.8319L17.7748 14.71ZM25.2139 8.28796V16.4873L26.3857 17.0777L25.833 18.6897L24.6711 18.1054C24.4372 17.9838 24.2384 17.7804 24.1002 17.521C23.9458 17.2191 23.8679 16.8687 23.8761 16.5135V8.28796H25.2139ZM15.0096 8.28796V16.4873L16.1715 17.0777L15.6188 18.6897L14.4569 18.1054C14.2308 17.9829 14.0388 17.7834 13.9042 17.5311C13.7493 17.2294 13.6708 16.879 13.6785 16.5235V8.28796H15.0096Z" fill="white"/>
<path d="M30.98 12.1931C31.2235 12.3357 31.4414 12.5351 31.6214 12.78C31.8014 13.0249 31.9399 13.3104 32.029 13.6203C32.1181 13.9302 32.1561 14.2583 32.1407 14.586C32.1253 14.9137 32.0568 15.2345 31.9393 15.5301L33.2356 16.2857C33.5865 15.3973 33.672 14.3884 33.4777 13.4318C33.2833 12.4752 32.821 11.6304 32.1701 11.042C31.5191 10.4536 30.7199 10.1583 29.9094 10.2065C29.0988 10.2548 28.3272 10.6436 27.7268 11.3065L28.6961 12.5981C28.9997 12.261 29.3797 12.0422 29.7868 11.97C30.194 11.8977 30.6096 11.9755 30.98 12.1931V12.1931Z" fill="#C7D540"/>
<path d="M29.1958 16.7009C28.7037 16.4132 28.3258 15.9002 28.145 15.2746C27.9642 14.6489 27.9953 13.9618 28.2314 13.3639L26.9352 12.6062C26.5877 13.4935 26.5044 14.4995 26.6993 15.453C26.8942 16.4065 27.3553 17.2485 28.0041 17.8356C28.6529 18.4228 29.4492 18.7187 30.2575 18.6731C31.0659 18.6275 31.8362 18.2431 32.4373 17.5855L31.468 16.2958C31.1652 16.6296 30.7873 16.8464 30.3827 16.9185C29.978 16.9906 29.5648 16.9149 29.1958 16.7009V16.7009ZM12.3541 16.8197V14.446C12.3541 13.6091 12.1497 12.7909 11.7667 12.095C11.3837 11.3991 10.8393 10.8568 10.2024 10.5365C9.56553 10.2162 8.86471 10.1324 8.18858 10.2957C7.51246 10.4589 6.8914 10.862 6.40394 11.4538C5.91648 12.0456 5.58452 12.7996 5.45003 13.6204C5.31554 14.4413 5.38457 15.2921 5.64838 16.0654C5.91219 16.8386 6.35893 17.4995 6.93212 17.9645C7.50531 18.4295 8.1792 18.6776 8.86857 18.6776C9.40894 18.6777 9.94193 18.5253 10.4254 18.2323L9.86443 16.6404C9.55033 16.8513 9.19633 16.9589 8.83745 16.9527C8.47856 16.9464 8.12724 16.8266 7.81823 16.6049C7.50922 16.3832 7.25324 16.0674 7.07562 15.6888C6.89799 15.3101 6.80487 14.8817 6.80548 14.446C6.8036 14.0366 6.88514 13.6331 7.04283 13.2712C7.18162 12.9554 7.37442 12.6793 7.60829 12.4614C7.84217 12.2435 8.11171 12.0889 8.39886 12.0078C8.55115 11.964 8.70709 11.9417 8.86359 11.9413C9.41135 11.9407 9.93688 12.2043 10.3247 12.6739C10.7125 13.1436 10.9308 13.781 10.9317 14.446V16.7996C10.9234 17.1548 11.0013 17.5052 11.1557 17.8071C11.2949 18.0655 11.4934 18.2686 11.7267 18.3915L12.3806 18.7058L12.935 17.0938L12.3541 16.8197Z" fill="white"/>
</g>
<defs>
<clipPath id="clip0_1004_343">
<rect width="39" height="30" fill="white"/>
</clipPath>
</defs>
</svg>
