<svg width="30" height="16" viewBox="0 0 30 16" fill="none" xmlns="http://www.w3.org/2000/svg">
<path d="M0.93601 12.2062C0.80188 11.9896 0.623042 11.6435 0.512582 11.3872C-0.131765 9.88672 -0.160694 8.33336 0.381083 6.8434C0.97809 5.20814 2.1195 3.95858 3.59493 3.31927C5.44907 2.51881 7.49783 2.67468 9.2757 3.73403C10.404 4.3839 11.2035 5.38778 11.811 6.80905C11.8873 6.99134 11.9557 7.18419 12.024 7.35062L0.93601 12.2062ZM4.63903 5.73121C3.32141 6.29919 2.64287 7.54083 2.78489 8.9938L8.36047 6.58186C7.40052 5.45118 6.15391 5.07605 4.63903 5.73121V5.73121ZM9.05478 10.9778C9.05215 10.9778 9.05215 10.9804 9.05215 10.9804L8.93643 10.9012C8.60242 11.4427 8.08432 11.8839 7.42945 12.1692C6.18284 12.7134 5.02827 12.5734 4.19719 11.8416L4.12092 11.9579C4.12092 11.9579 4.12092 11.9552 4.11829 11.9552L2.70336 14.0819C3.05578 14.3275 3.43187 14.5336 3.82637 14.7C5.38858 15.3526 6.98761 15.3209 8.56297 14.634C9.70176 14.1373 10.596 13.3818 11.2061 12.4228L9.05478 10.9778ZM15.898 0.191406V12.0107L17.7285 12.7557L16.6896 15.1914L14.6698 14.346C14.2174 14.1479 13.9071 13.8467 13.6757 13.506C13.4521 13.1599 13.2864 12.6817 13.2864 12.0424V0.191406H15.898ZM20.6372 9.00173C20.6372 7.99521 21.0817 7.09172 21.7813 6.47883L19.9035 4.37598C18.6306 5.50666 17.8284 7.15777 17.8284 8.99644C17.8258 10.8378 18.6279 12.4915 19.8982 13.6222L21.7734 11.5193C21.0765 10.9038 20.6372 10.0056 20.6372 9.00173V9.00173ZM23.9721 12.3541C23.6039 12.3541 23.2462 12.2907 22.9148 12.1798L22.018 14.8559C22.6308 15.062 23.2856 15.1756 23.9694 15.1756C26.9413 15.1782 29.4214 13.0595 29.9974 10.246L27.2411 9.68066C26.9282 11.2103 25.5843 12.3568 23.9721 12.3541V12.3541ZM23.98 2.8279C23.2988 2.8279 22.6439 2.93885 22.0311 3.14227L22.9201 5.82103C23.2541 5.71007 23.6091 5.64931 23.9773 5.64931C25.5921 5.65196 26.9387 6.80377 27.2438 8.336L30 7.77594C29.4346 4.95717 26.9545 2.83054 23.98 2.8279V2.8279Z" fill="white"/>
</svg>
