<svg width="63" height="22" viewBox="0 0 63 22" fill="none" xmlns="http://www.w3.org/2000/svg">
<g clip-path="url(#clip0_1004_391)">
<path d="M17.2979 0.191406H10.7699C7.88539 0.295865 5.5276 1.1857 4.84681 3.02068C4.49182 3.97766 4.29646 5.02869 4.01888 6.02071C2.60772 11.0648 1.35643 16.248 0.0065918 21.1914H50.8295C54.7586 21.1914 57.4565 20.5555 58.1854 18.1669C58.5241 17.0573 58.8485 15.8007 59.1726 14.5816C60.4358 9.82865 61.7 5.07594 62.994 0.191406H17.2979Z" fill="#822124"/>
<path d="M16.788 7.65478C17.061 7.51073 17.4126 6.85472 17.0109 6.58159C16.8837 6.49513 16.6709 6.47003 16.374 6.50848C16.0986 6.54409 15.9402 6.61578 15.8327 6.72801C15.6598 6.90842 15.5012 7.45268 15.769 7.65487C16.0299 7.85167 16.6142 7.74635 16.788 7.65478V7.65478ZM12.903 6.58159C12.7074 7.55373 12.4871 8.50692 12.2661 9.45964C10.8475 9.4711 9.39916 9.51324 8.03091 9.43521C8.28932 8.50313 8.47467 7.51499 8.73148 6.58159H7.20298C6.65585 8.95923 6.15805 11.3748 5.54712 13.7036H7.10752C7.35222 12.5091 7.58121 11.3023 7.90355 10.167C9.23397 10.1419 10.8285 10.0981 12.107 10.1914C11.8434 11.3717 11.5249 12.5097 11.2791 13.7036H12.8395C13.341 11.2908 13.8691 8.89871 14.4955 6.58159H12.903V6.58159ZM34.9709 8.63041C33.7568 8.25482 32.8022 8.88952 32.3597 9.48407C32.4601 9.21957 32.5014 8.90979 32.5828 8.63041H31.3727C31.0768 10.3876 30.6408 12.0374 30.2263 13.7036H31.5957C31.7876 12.7146 31.8705 11.3814 32.2962 10.4353C32.6364 9.67926 33.5269 9.03518 34.8119 9.38653C34.8297 9.10763 34.9339 8.89473 34.9709 8.63041V8.63041ZM35.735 12.5085C35.6087 12.2587 35.5762 11.8464 35.6078 11.5328C35.6785 10.8281 36.0138 9.97009 36.5313 9.58162C37.2453 9.0455 38.655 9.13424 39.7794 9.4353C39.8142 9.14504 39.8903 8.88611 39.9387 8.60608C38.0946 8.37538 36.3448 8.51895 35.417 9.26465C34.5086 9.99462 33.9133 11.6724 34.3341 12.7281C34.8267 13.9634 37.0357 14.0305 38.8241 13.5574C38.9033 13.3091 38.9452 13.0322 39.0152 12.7769C38.0378 13.1657 36.1694 13.3678 35.735 12.5085V12.5085ZM51.1157 8.65475C49.9055 8.19127 48.8979 8.96898 48.5046 9.43521C48.6166 9.19599 48.623 8.8756 48.7274 8.63032H47.5174C47.1911 10.3723 46.7979 12.063 46.3393 13.7035H47.7405C47.7492 13.0311 47.9217 12.5337 48.0587 11.8744C48.3515 10.4663 48.7815 8.92229 50.9249 9.38644C50.9958 9.14835 51.0253 8.87825 51.1157 8.65475ZM15.3868 8.63041C15.3497 8.63449 15.3522 8.66896 15.3549 8.70353C15.0532 10.4318 14.6448 12.0785 14.2086 13.7035H15.5778C15.9069 11.9636 16.2837 10.2606 16.7561 8.63032L15.3868 8.63041V8.63041ZM27.4238 8.53287C26.4344 8.5913 25.5981 8.80931 25.0037 9.28899C24.2747 9.87719 23.6844 11.1778 23.8574 12.3622C24.1042 14.0519 26.851 13.9912 29.0479 13.5817C29.0853 13.2851 29.1791 13.0316 29.2389 12.7524C28.334 13.0118 26.7625 13.3738 25.8315 12.9232C25.1287 12.5828 25.1246 11.7211 25.3539 10.972C26.8304 10.936 28.3651 10.9428 29.8438 10.972C29.9375 10.4411 30.2059 9.86223 29.9711 9.33785C29.6615 8.64557 28.5524 8.4662 27.4238 8.53287ZM28.7294 10.3865H25.513C25.6149 9.82018 26.2801 9.19769 27.3282 9.16701C28.3147 9.13812 29.0209 9.44439 28.7294 10.3865V10.3865ZM22.2333 8.63041C21.0744 8.29696 19.662 8.695 19.0496 9.07363C19.0518 9.0903 19.035 9.09257 19.0169 9.0938C19.0273 9.08708 19.0387 9.08035 19.0496 9.07363C19.0495 9.07223 19.0492 9.07084 19.0489 9.06946C19.0592 8.90667 19.134 8.79321 19.1444 8.63041H17.9662C17.4752 11.1324 16.8929 13.5644 16.2785 15.9719H17.6478C17.846 15.0343 17.9768 14.0451 18.2529 13.167C18.5656 14.0906 20.6075 13.9141 21.4692 13.5573C23.2468 12.8209 24.618 9.31645 22.2333 8.63041V8.63041ZM21.1507 12.7524C20.4181 13.3467 18.617 13.3378 18.4757 12.3377C18.4143 11.9026 18.6258 11.4464 18.7307 10.9963C18.8364 10.5407 18.9127 10.1035 19.017 9.7036C19.7386 9.02874 21.859 8.9472 22.0742 10.0694C22.2607 11.0438 21.7573 12.2602 21.1507 12.7524V12.7524ZM56.2107 6.43528C56.0933 7.2234 55.9364 7.98132 55.7331 8.70353C52.3743 7.88917 50.3145 9.78201 50.3516 12.1183C50.3589 12.5701 50.4604 13.0181 50.8291 13.3378C51.4651 13.8884 53.2854 14.0203 54.2048 13.5572C54.3826 13.4676 54.5644 13.3045 54.6823 13.1914C54.7709 13.1063 54.9115 12.8833 54.9371 12.9475C54.8886 13.1949 54.8164 13.4243 54.8099 13.7035H56.0518C56.2913 11.0738 57.0312 8.82768 57.5803 6.43518H56.2108V6.43528H56.2107ZM53.1538 13.1426C52.232 13.1577 51.7736 12.7208 51.7525 11.9963C51.7158 10.7274 52.4424 9.31777 53.918 9.19135C54.605 9.13253 55.1024 9.25489 55.6058 9.38653C55.1436 10.8118 55.3104 13.1072 53.1538 13.1426V13.1426ZM41.3396 8.63041C41.2722 8.92021 41.1687 9.18244 41.0849 9.45964C41.8929 9.30442 44.409 8.82863 44.6514 9.65473C44.7319 9.92918 44.5931 10.2208 44.4922 10.4353C42.2171 10.2702 40.3627 10.5597 39.8748 11.8011C39.5481 12.6326 39.9114 13.4508 40.6072 13.6793C41.9474 14.1191 43.5776 13.6152 44.1419 12.9232C44.0833 13.1627 44.0278 13.4049 44.0466 13.7036H45.2246C45.2373 12.8393 45.4015 12.1398 45.5749 11.3621C45.7228 10.6998 46.0011 10.0442 45.9571 9.45964C45.8557 8.121 42.9603 8.59452 41.3396 8.63041V8.63041ZM43.5687 12.728C42.863 13.2571 40.8822 13.4074 41.0849 12.1426C41.253 11.0921 42.7464 10.8689 44.3646 11.0205C44.2444 11.5952 44.1064 12.3248 43.5687 12.728V12.728Z" fill="white"/>
</g>
<defs>
<clipPath id="clip0_1004_391">
<rect width="63" height="21" fill="white" transform="translate(0 0.191406)"/>
</clipPath>
</defs>
</svg>
