<svg width="56" height="32" viewBox="0 0 56 32" fill="none" xmlns="http://www.w3.org/2000/svg">
<g filter="url(#filter0_d_1016_253)">
<path d="M28.1998 15.7101C28.1998 16.4526 27.2714 17.3654 26.5164 17.3654H25.829C25.8297 12.821 25.8297 7.72638 25.829 6.82208C25.8287 6.7953 25.8339 6.76873 25.8444 6.7439C25.8549 6.71906 25.8704 6.69644 25.89 6.67733C25.9097 6.65822 25.9331 6.643 25.9589 6.63255C25.9848 6.62209 26.0125 6.6166 26.0406 6.61639H27.9872C28.1041 6.61639 28.1999 6.71001 28.1999 6.82369V15.7101H28.1998ZM25.0277 18.96C25.0277 19.4301 24.7867 20.2174 23.1724 20.2174C20.044 20.2174 18.1236 17.8783 18.1236 16.2008C18.1236 16.2008 18.1201 10.7764 18.1201 6.82379C18.1198 6.79697 18.125 6.77036 18.1355 6.74549C18.146 6.72061 18.1616 6.69796 18.1813 6.67884C18.201 6.65972 18.2245 6.64451 18.2504 6.63409C18.2762 6.62367 18.304 6.61823 18.3321 6.6181H20.2811C20.3981 6.6181 20.4942 6.71112 20.4942 6.8255V15.5412C20.4942 16.9812 21.6884 18.1492 23.1606 18.1492H25.0287L25.0277 18.96ZM28.1349 5.83474H25.8925C25.4157 5.83474 25.0275 6.21478 25.0275 6.68099V17.3663H23.1592C22.1284 17.3663 21.293 16.549 21.293 15.541V6.68099C21.293 6.21367 20.9053 5.83433 20.4276 5.83433H18.1842C17.7065 5.83433 17.3188 6.21367 17.3181 6.68099C17.3169 10.5443 17.3216 16.201 17.3216 16.201C17.3219 19.1743 20.729 21 23.1718 21C24.8102 21 25.8279 20.2166 25.8279 18.9547V18.149H26.5161C27.7232 18.149 29 16.8956 29 15.7101V6.68099C29.0012 6.21367 28.6135 5.83433 28.135 5.83433V5.83474H28.1349ZM14.882 17.1763C14.8823 17.2031 14.877 17.2297 14.8665 17.2545C14.856 17.2793 14.8404 17.3019 14.8207 17.321C14.8011 17.3401 14.7776 17.3552 14.7517 17.3656C14.7259 17.376 14.6981 17.3815 14.6701 17.3816H12.7211C12.6025 17.3816 12.5075 17.2878 12.508 17.1747V8.45895C12.508 7.019 11.3135 5.85096 9.84165 5.85096H7.97338V5.03999C7.97338 4.57096 8.21436 3.78256 9.82866 3.78256C12.9571 3.78256 14.8781 6.12156 14.8781 7.79924C14.8781 7.79924 14.8816 13.2499 14.8816 17.1762H14.882V17.1763ZM5.01291 17.3834C4.89432 17.3801 4.79949 17.2889 4.80087 17.1757V8.29095C4.80087 7.5483 5.72929 6.63433 6.48401 6.63433H7.1721C7.17104 13.142 7.17104 16.472 7.1721 17.1753C7.17263 17.2296 7.15059 17.282 7.11079 17.3209C7.07099 17.3597 7.01668 17.382 6.95974 17.3827H5.01323L5.01291 17.3834ZM15.678 7.79934C15.6784 4.82573 12.2712 3 9.82876 3C8.18986 3 7.1721 3.78326 7.1721 5.04533V5.85096H6.48433C5.2768 5.85096 4 7.10436 4 8.29004V17.319C4 17.7863 4.38766 18.1657 4.86517 18.1657H7.10715C7.12109 18.1657 7.13303 18.162 7.14697 18.162C7.60516 18.141 7.97222 17.7727 7.97222 17.319V6.63372H9.8408C10.8711 6.63372 11.707 7.45105 11.707 8.45905V17.3191C11.707 17.7864 12.0947 18.1658 12.5721 18.1658H14.8159C15.2936 18.1658 15.6811 17.7874 15.6811 17.3191C15.6828 13.3838 15.6783 7.79914 15.6783 7.79914L15.678 7.79934Z" fill="white"/>
<path fill-rule="evenodd" clip-rule="evenodd" d="M34.3845 15.9562L34.3807 15.9613L34.3771 15.9665C34.1722 16.2566 33.7132 16.3418 33.3542 16.0883C33.0669 15.8854 32.9805 15.4332 33.2252 15.0758C33.5903 14.6105 33.8554 14.0665 34.0295 13.5346C34.2108 12.981 34.2951 12.3518 34.2918 11.7348C34.2886 11.1177 34.1976 10.4895 34.0104 9.93778C33.8306 9.40783 33.5597 8.86665 33.1897 8.40522C32.9412 8.05048 33.0228 7.59741 33.3079 7.39142C33.6642 7.13411 34.124 7.21446 34.332 7.50237L34.3357 7.50754L34.3396 7.51261C34.8001 8.11987 35.1778 8.79456 35.4035 9.4565C35.6411 10.2352 35.7925 10.9884 35.7964 11.7267C35.8005 12.5037 35.7263 13.2391 35.4412 13.963C35.1307 14.7514 34.83 15.3556 34.3845 15.9562ZM37.7142 17.3982L37.7232 17.3855L37.7314 17.3722C38.7521 15.7369 39.3408 13.7636 39.3299 11.7079C39.3189 9.65272 38.7095 7.68628 37.672 6.06218C37.4471 5.70561 37.5481 5.28402 37.9271 5.01025C38.1817 4.82638 38.6595 4.89148 38.943 5.27145C40.1145 7.13005 40.8221 9.37681 40.8344 11.6999C40.8472 14.1023 40.1641 16.2762 39.0115 18.1483C38.7449 18.5153 38.3367 18.6182 37.9847 18.4102C37.603 18.1306 37.5333 17.6544 37.7142 17.3982ZM43.6892 2.82849L43.6992 2.84835L43.7109 2.86732C45.2982 5.45523 46.1803 8.44031 46.1975 11.6714C46.2147 14.9009 45.3652 17.894 43.8069 20.4978C43.568 20.8819 43.1647 20.9902 42.7558 20.7999C42.3836 20.5574 42.2836 20.1554 42.478 19.7495C43.8033 17.3959 44.6274 14.6224 44.6117 11.6798C44.5961 8.75034 43.8301 5.98128 42.3894 3.6275C42.1944 3.22559 42.291 2.82532 42.6587 2.58001C43.1024 2.36806 43.5346 2.52341 43.6892 2.82849ZM48.3892 0.36563L48.396 0.379195L48.4037 0.392358C50.3272 3.71734 51.4573 7.51876 51.4793 11.6432C51.5012 15.7635 50.4139 19.5731 48.5295 22.9159C48.2901 23.2956 47.8887 23.402 47.4817 23.2126C47.1107 22.9708 47.0102 22.5706 47.2022 22.166C49.0176 19.0676 49.9951 15.478 49.9748 11.6512C49.9543 7.81462 48.8525 4.23889 47.0925 1.1711C46.872 0.723268 47.0274 0.28466 47.3352 0.128698C47.787 -0.100227 48.2319 0.0551712 48.3892 0.36563Z" fill="white"/>
</g>
<defs>
<filter id="filter0_d_1016_253" x="0" y="0.0194092" width="55.4797" height="31.2849" filterUnits="userSpaceOnUse" color-interpolation-filters="sRGB">
<feFlood flood-opacity="0" result="BackgroundImageFix"/>
<feColorMatrix in="SourceAlpha" type="matrix" values="0 0 0 0 0 0 0 0 0 0 0 0 0 0 0 0 0 0 127 0" result="hardAlpha"/>
<feOffset dy="4"/>
<feGaussianBlur stdDeviation="2"/>
<feComposite in2="hardAlpha" operator="out"/>
<feColorMatrix type="matrix" values="0 0 0 0 0 0 0 0 0 0 0 0 0 0 0 0 0 0 0.25 0"/>
<feBlend mode="normal" in2="BackgroundImageFix" result="effect1_dropShadow_1016_253"/>
<feBlend mode="normal" in="SourceGraphic" in2="effect1_dropShadow_1016_253" result="shape"/>
</filter>
</defs>
</svg>
