<svg width="39" height="21" viewBox="0 0 39 21" fill="none" xmlns="http://www.w3.org/2000/svg">
<path fill-rule="evenodd" clip-rule="evenodd" d="M19.5 18.1112C20.711 17.1741 21.6778 16.0327 22.3383 14.7602C22.9988 13.4877 23.3384 12.1121 23.3354 10.7217C23.3385 9.33137 22.9988 7.9558 22.3383 6.68328C21.6778 5.41075 20.7111 4.26936 19.5 3.33232C17.4292 1.72901 14.6821 0.751953 11.6676 0.751953C5.22397 0.751953 0 5.21552 0 10.7217C0 16.2278 5.22397 20.6915 11.6676 20.6915C14.6821 20.6915 17.4294 19.7145 19.5 18.1112Z" fill="#3A9BD9"/>
<path fill-rule="evenodd" clip-rule="evenodd" d="M27.3324 0.691467C24.3179 0.691467 21.5704 1.66017 19.5 3.24978C19.0777 3.57422 18.684 3.92398 18.322 4.29631H20.6771C21.0005 4.62864 21.2978 4.97828 21.5673 5.34302H17.4325C17.1836 5.68031 16.9589 6.02984 16.7598 6.38973H22.2389C22.4275 6.73037 22.5928 7.07978 22.734 7.43627H16.2657C16.1301 7.77963 16.017 8.129 15.927 8.4828H23.073C23.2479 9.17083 23.3359 9.87247 23.3356 10.576C23.3356 11.6734 23.1238 12.7292 22.7342 13.7157H16.2657C16.4064 14.0722 16.5714 14.4217 16.7598 14.7624H22.2389C22.0401 15.1223 21.8158 15.4718 21.567 15.8091H17.4325C17.7017 16.1738 17.9987 16.5234 18.3218 16.8558H20.6771C20.3155 17.2283 19.9221 17.5781 19.5 17.9025C21.5704 19.4921 24.3179 20.4608 27.3324 20.4608C33.7758 20.4608 39 16.0352 39 10.5762C39 5.11689 33.7758 0.691467 27.3324 0.691467Z" fill="#CC2131"/>
<path fill-rule="evenodd" clip-rule="evenodd" d="M37.4463 16.2792C37.4463 16.1013 37.6149 15.957 37.8234 15.957C38.0314 15.957 38.2001 16.1013 38.2001 16.2792C38.2001 16.4567 38.0314 16.601 37.8234 16.601C37.7231 16.6007 37.627 16.5666 37.5563 16.5063C37.4856 16.446 37.446 16.3643 37.4463 16.2792V16.2792ZM37.8232 16.5235C37.9812 16.5235 38.1094 16.4144 38.1094 16.279C38.1094 16.1436 37.9812 16.0341 37.8232 16.0341C37.6648 16.0341 37.5366 16.1436 37.5366 16.279C37.5366 16.4144 37.665 16.5235 37.8232 16.5235ZM37.7723 16.4203H37.695V16.137H37.8351C37.864 16.137 37.8936 16.1377 37.9193 16.1515C37.9326 16.1595 37.9434 16.1701 37.9508 16.1824C37.9582 16.1948 37.9619 16.2084 37.9616 16.2222C37.9616 16.2541 37.9397 16.2841 37.9043 16.2954L37.9654 16.4201H37.8795L37.829 16.3082H37.7725V16.4203V16.2601H37.8153C37.8307 16.2601 37.8482 16.2608 37.8622 16.2542C37.8684 16.2506 37.8734 16.2458 37.8768 16.2401C37.8802 16.2344 37.8819 16.2281 37.8818 16.2217C37.8815 16.216 37.8797 16.2105 37.8764 16.2055C37.8732 16.2005 37.8686 16.1963 37.863 16.1931C37.8497 16.1862 37.828 16.1879 37.8134 16.1879H37.7727V16.4203H37.7723Z" fill="#CC2131"/>
<path fill-rule="evenodd" clip-rule="evenodd" d="M34.9791 12.8825C34.9791 12.7046 35.1478 12.5604 35.3558 12.5604C35.5639 12.5604 35.7325 12.7046 35.7325 12.8825C35.7325 13.0604 35.5639 13.2043 35.3558 13.2043C35.1478 13.2043 34.9791 13.0602 34.9791 12.8825ZM35.3556 13.1269C35.5136 13.1269 35.6418 13.0174 35.6418 12.8823C35.6418 12.7469 35.5136 12.6375 35.3556 12.6375C35.1972 12.6375 35.0694 12.7469 35.0694 12.8823C35.0694 13.0174 35.1974 13.1269 35.3556 13.1269ZM35.3047 13.0236H35.2274V12.7407H35.3675C35.3965 12.7407 35.4265 12.7411 35.4517 12.7552C35.465 12.7631 35.4758 12.7737 35.4832 12.7859C35.4906 12.7982 35.4943 12.8118 35.494 12.8256C35.494 12.8578 35.4723 12.8875 35.4367 12.8988L35.4978 13.0234H35.4123L35.3614 12.9115H35.3049V13.0236V12.8634H35.3477C35.3635 12.8634 35.381 12.8645 35.3946 12.8579C35.4007 12.8543 35.4057 12.8494 35.4091 12.8437C35.4125 12.8381 35.4143 12.8318 35.4142 12.8254C35.414 12.8196 35.4123 12.814 35.409 12.8089C35.4057 12.8039 35.4011 12.7996 35.3954 12.7964C35.3821 12.7899 35.3604 12.7913 35.3462 12.7913H35.3052V13.0236H35.3047ZM10.2101 13.2043H8.758L9.62101 9.31873L7.63399 13.2043H6.30986L6.06784 9.341L5.20211 13.2043H3.88403L5.01033 8.14983H7.27627L7.39614 11.279L8.99376 8.14983H11.355L10.2101 13.2043V13.2043ZM26.4388 13.1539C26.0415 13.2471 25.7309 13.2872 25.3953 13.2872C24.6523 13.2872 24.2467 12.9688 24.2467 12.3846C24.2467 12.269 24.2617 12.1459 24.2894 12.0158L24.3778 11.6139L24.4457 11.2886L25.1188 8.14966H26.563L26.3538 9.09365H27.0948L26.8957 10.093H26.1515L25.7688 11.808C25.7546 11.8641 25.7463 11.921 25.744 11.9783C25.744 12.1907 25.8943 12.2829 26.2395 12.2829C26.4048 12.2829 26.533 12.2702 26.6312 12.2446L26.4388 13.1539ZM30.6801 9.12742C30.5584 9.0864 30.5298 9.0864 30.5156 9.08304C30.4387 9.06854 30.3976 9.06005 30.3905 9.05899C30.3423 9.05184 30.2934 9.04841 30.2444 9.04874C29.7677 9.04874 29.4239 9.23014 28.9795 9.7162L29.1077 9.09329H27.7925L26.9074 13.2041H28.3606C28.8805 10.6901 29.1031 10.2498 29.8002 10.2498C29.8527 10.2498 29.9134 10.2533 29.9838 10.2602L30.1535 10.2898L30.6801 9.12742V9.12742ZM20.6822 10.3923C20.6822 10.9116 21.0247 11.2693 21.801 11.538C22.396 11.7446 22.4879 11.805 22.4879 11.9917C22.4879 12.2476 22.2257 12.363 21.6447 12.363C21.2061 12.363 20.7985 12.3127 20.3281 12.2004L20.1265 13.1486L20.1915 13.158L20.4606 13.2001C20.5474 13.2128 20.6751 13.225 20.8446 13.236C21.194 13.2591 21.4644 13.2701 21.6549 13.2701C23.205 13.2701 23.921 12.836 23.921 11.8984C23.921 11.3342 23.6217 11.0034 22.8856 10.7542C22.2696 10.5461 22.1983 10.5 22.1983 10.3082C22.1983 10.0866 22.4427 9.97275 22.9173 9.97275C23.206 9.97275 23.5996 9.99591 23.973 10.0345L24.1822 9.08286C23.802 9.03866 23.225 9.00241 22.8896 9.00241C21.2461 9.00259 20.6772 9.63416 20.6822 10.3923V10.3923ZM14.9309 13.2043H13.7241L13.7522 12.7782C13.3847 13.1155 12.8949 13.2754 12.229 13.2754C11.4421 13.2754 10.902 12.8174 10.902 12.1526C10.902 11.1512 11.8403 10.5675 13.4529 10.5675C13.6182 10.5675 13.8281 10.5787 14.0445 10.5992C14.0895 10.4641 14.1018 10.4058 14.1018 10.3322C14.1018 10.0601 13.8485 9.95825 13.1704 9.95825C12.7558 9.95825 12.2872 10.0028 11.9637 10.0728L11.7625 10.1165L11.6322 10.143L11.8336 9.21883C12.5576 9.06041 13.0354 9.00047 13.5721 9.00047C14.8202 9.00047 15.4797 9.41809 15.4797 10.2063C15.4797 10.4091 15.4578 10.5631 15.3617 11.0207L15.0582 12.479L15.0072 12.7407L14.9701 12.9497L14.9452 13.0927L14.9309 13.2043V13.2043ZM13.8715 11.3729C13.7638 11.3615 13.6554 11.3559 13.5469 11.3559C12.7239 11.3559 12.307 11.5662 12.307 11.9813C12.307 12.2372 12.5105 12.4005 12.8279 12.4005C13.42 12.4007 13.8465 11.9808 13.8715 11.3729ZM19.6948 13.1155C19.2098 13.2272 18.7093 13.2833 18.2068 13.2823C16.5833 13.2812 15.7372 12.6497 15.7372 11.4406C15.7372 10.0295 16.8137 8.99057 18.275 8.99057C19.4705 8.99057 20.2338 9.57245 20.2338 10.4848C20.2338 10.7877 20.1817 11.0829 20.0556 11.4997H17.1682C17.1594 11.5423 17.1547 11.5855 17.1543 11.6288C17.1543 12.1053 17.5847 12.3484 18.4282 12.3484C18.9468 12.3484 19.4156 12.2679 19.9362 12.0883L19.6948 13.1155ZM18.9214 10.6696C18.9293 10.584 18.9335 10.514 18.9335 10.4599C18.9335 10.126 18.6789 9.93014 18.2466 9.93014C17.7847 9.93014 17.4543 10.1929 17.3202 10.6671L18.9214 10.6696ZM35.194 11.3405C34.9766 12.708 33.8591 13.3145 32.3734 13.3145C30.7305 13.3145 30.067 12.4629 30.067 11.4196C30.067 9.96267 31.1908 8.97554 32.9264 8.97554C34.433 8.97554 35.2328 9.78727 35.2328 10.8308C35.2328 11.0847 35.2324 11.1015 35.194 11.3405ZM33.6986 10.8145C33.6986 10.3845 33.4943 9.97858 32.8989 9.97858C32.1579 9.97858 31.6986 10.727 31.6986 11.3878C31.6986 11.9451 32.0134 12.3195 32.5325 12.3116C32.8472 12.3116 33.5185 11.9452 33.6513 11.3054C33.6823 11.1561 33.6986 10.9924 33.6986 10.8145V10.8145Z" fill="white"/>
</svg>
